<?xml version="1.0" encoding="iso-8859-1"?>
<!-- Generator: Adobe Illustrator 19.0.0, SVG Export Plug-In . SVG Version: 6.00 Build 0)  -->
<svg version="1.1" id="Capa_1" xmlns="http://www.w3.org/2000/svg"  x="0px" y="0px"
	 viewBox="0 0 511.999 511.999" style="enable-background:new 0 0 511.999 511.999;" xml:space="preserve">
<g>
	<g>
		<path d="M453.263,241.214c0-19.372-6.028-37.835-17.434-53.415L362.755,79.32l-33.486,49.71L242.346,0L94.31,219.753
			c-23.275,31.674-35.574,69.228-35.574,108.636c0,101.243,82.367,183.61,183.61,183.61s183.61-82.367,183.61-183.61
			c0-7.11-0.42-14.234-1.234-21.272C442.28,290.598,453.263,267.166,453.263,241.214z M242.346,481.813
			c-84.599,0-153.424-68.826-153.424-153.424c0-33.041,10.344-64.52,29.913-91.032l0.784-1.069l0.146-0.292L242.346,54.028
			l68.724,102.017L289.679,187.8c-11.406,15.581-17.433,34.043-17.433,53.415c0,49.907,40.602,90.508,90.509,90.508
			c11.634,0,22.761-2.209,32.987-6.224c0.017,0.963,0.029,1.927,0.029,2.89C395.771,412.987,326.945,481.813,242.346,481.813z
			 M362.756,301.536c-33.263,0-60.323-27.061-60.323-60.322c0-12.998,4.065-25.373,11.755-35.787l0.779-1.06l0.147-0.293
			l47.642-70.724l47.64,70.723l0.152,0.304l0.775,1.049c7.69,10.415,11.755,22.789,11.755,35.787
			C423.078,274.477,396.018,301.536,362.756,301.536z"/>
	</g>
</g>
<g>
</g>
<g>
</g>
<g>
</g>
<g>
</g>
<g>
</g>
<g>
</g>
<g>
</g>
<g>
</g>
<g>
</g>
<g>
</g>
<g>
</g>
<g>
</g>
<g>
</g>
<g>
</g>
<g>
</g>
</svg>
