<svg xmlns="http://www.w3.org/2000/svg" viewBox="0 0 512 512">
  <circle cx="376" cy="105" r="15"/>
  <path
    d="M497 482H391V393.1c36.3-26.5 60-69.4 60-117.7V120h46c8.3 0 15-6.7 15-15 0-20-8-38.9-22.6-53.2 -14.4-14.1-33.4-21.8-53.4-21.8 -8.3 0-36 0-49.4 0 -34.9 0-67 12.4-92.1 32.9 -17.4-7.3-27.6-26.2-23.8-45 1.6-8.1-3.6-16-11.8-17.7 -8.1-1.6-16 3.6-17.7 11.8 -3.9 19.4 0.7 38.9 11.4 54.1l-4-0.1c-11.8-0.4-22.8-6-30.1-15.3 -7.3-9.3-10.2-21.3-7.9-32.8 1.6-8.1-3.6-16-11.8-17.7 -8.1-1.6-16 3.6-17.7 11.8 -4.1 20.2 0.9 41.2 13.8 57.4 12.8 16.2 32 25.9 52.6 26.6l16.7 0.6c-14.8 22.8-23.3 49.9-23.3 79v25c-17.3 21.6-28.2 48.6-29.8 78 -21-6.1-43.9-5-64.4 3.5 -13.2 5.5-25 13.8-34.6 24.3 -18.4-3.5-37.7-1.6-55.4 5.7 -26.4 10.9-47.4 33-56.1 59.1 -1.4 4.2-0.9 8.8 1.5 12.6 2.3 3.8 6.2 6.3 10.6 7L211 419v17c0 8.3 6.7 15 15 15 27.7 0 53.5-8.4 75-22.8v53.8H15V482c-8.3 0-15 6.7-15 15 0 8.3 6.7 15 15 15h482c8.3 0 15-6.7 15-15C512 488.7 505.3 482 497 482zM451 62.6c13 4.5 23.5 14.8 28.3 27.4h-28.3V62.6zM211 388.7L37.8 364.1c7.5-10.5 18.1-19.1 30.6-24.2 18-7.5 38.4-6.7 55.8 2L211 385.3V388.7zM211 351.7L211 351.7l-67.2-33.6c4.5-3.3 9.3-6.1 14.5-8.3 16.9-7 36.1-6.7 52.7 0.5V351.7zM241 419.9V398.3c37.2-24.9 60-67.2 60-112.3 0-8.3-6.7-15-15-15 -8.3 0-15 6.7-15 15 0 27.7-11.1 54-30 73.4v-73.4c0-53.3 39.2-97.5 90-104.9v134.9C331 368.8 291.8 412.6 241 419.9zM361 482h-30v-63.3c10.4-1.9 20.5-4.8 30-8.8V482zM341.9 385.1c12.1-20.2 19.1-43.8 19.1-69.1V165c0-8.3-6.7-15-15-15 -27.7 0-53.5 8.5-75 23 1.4-62.5 52.7-113 115.6-113 12.6 0 23 0 34.4 0v215.4C421 326.4 387.8 369.7 341.9 385.1z"/>
</svg>
