<?xml version="1.0" encoding="iso-8859-1"?>
<!-- Generator: Adobe Illustrator 19.0.0, SVG Export Plug-In . SVG Version: 6.00 Build 0)  -->
<svg version="1.1" id="Layer_1" xmlns="http://www.w3.org/2000/svg"  x="0px" y="0px"
	 viewBox="0 0 274.964 274.964" style="enable-background:new 0 0 274.964 274.964;" xml:space="preserve">
<g>
	<g>
		<g>
			<path d="M265.963,183.754c-9.717,0-18.94-4.233-25.305-11.614c-1.709-1.982-4.198-3.123-6.816-3.123s-5.106,1.14-6.816,3.123
				c-6.363,7.38-15.586,11.613-25.304,11.613s-18.94-4.233-25.305-11.614c-1.709-1.982-4.198-3.123-6.816-3.123
				c-2.618,0-5.106,1.14-6.816,3.123c-6.363,7.38-15.586,11.613-25.304,11.613c-9.718,0-18.94-4.233-25.304-11.613
				c-1.71-1.983-4.198-3.123-6.816-3.123c-2.618,0-5.106,1.14-6.816,3.123c-6.364,7.381-15.587,11.614-25.305,11.614
				c-9.718,0-18.94-4.233-25.304-11.613c-1.71-1.983-4.198-3.123-6.816-3.123c-2.618,0-5.106,1.14-6.816,3.123
				C27.94,179.522,18.717,183.754,9,183.754c-4.971,0-9,4.029-9,9s4.029,9,9,9c10.469,0,20.558-3.195,29.029-9
				c1.055-0.723,2.09-1.48,3.092-2.283c1.002,0.803,2.037,1.56,3.092,2.283c8.47,5.805,18.56,9,29.028,9
				c10.468,0,20.558-3.195,29.029-9c1.055-0.723,2.09-1.48,3.092-2.283c1.002,0.803,2.037,1.56,3.092,2.283
				c8.47,5.805,18.56,9,29.028,9s20.558-3.195,29.028-9c1.055-0.723,2.089-1.48,3.092-2.283c1.002,0.803,2.037,1.56,3.092,2.283
				c8.47,5.805,18.56,9,29.029,9c10.469,0,20.558-3.195,29.028-9c1.055-0.723,2.089-1.48,3.092-2.283
				c1.002,0.803,2.037,1.56,3.092,2.283c8.47,5.805,18.56,9,29.029,9c4.971,0,9-4.029,9-9S270.934,183.754,265.963,183.754z"/>
			<path d="M265.963,135.851c-9.717,0-18.94-4.233-25.305-11.614c-1.709-1.982-4.198-3.123-6.816-3.123s-5.106,1.14-6.816,3.123
				c-6.363,7.38-15.586,11.613-25.304,11.613s-18.94-4.233-25.305-11.614c-1.709-1.982-4.198-3.123-6.816-3.123
				c-2.618,0-5.106,1.14-6.816,3.123c-6.363,7.38-15.586,11.613-25.304,11.613c-9.718,0-18.94-4.233-25.304-11.613
				c-1.71-1.983-4.198-3.123-6.816-3.123c-2.618,0-5.106,1.14-6.816,3.123c-6.364,7.381-15.587,11.614-25.305,11.614
				c-9.718,0-18.94-4.233-25.304-11.613c-1.71-1.983-4.198-3.123-6.816-3.123c-2.618,0-5.106,1.14-6.816,3.123
				C27.94,131.618,18.717,135.851,9,135.851c-4.971,0-9,4.029-9,9c0,4.971,4.029,9,9,9c10.469,0,20.558-3.195,29.029-9
				c1.055-0.723,2.089-1.48,3.092-2.283c1.002,0.803,2.037,1.56,3.092,2.283c8.47,5.805,18.56,9,29.028,9
				c10.468,0,20.558-3.195,29.029-9c1.055-0.723,2.089-1.48,3.092-2.283c1.002,0.803,2.037,1.56,3.092,2.283
				c8.47,5.805,18.56,9,29.028,9s20.558-3.195,29.028-9c1.055-0.723,2.089-1.48,3.092-2.283c1.002,0.803,2.037,1.56,3.092,2.283
				c8.471,5.805,18.56,9,29.029,9c10.469,0,20.558-3.195,29.028-9c1.055-0.723,2.089-1.48,3.092-2.283
				c1.002,0.803,2.037,1.56,3.092,2.283c8.471,5.805,18.56,9,29.029,9c4.971,0,9-4.029,9-9
				C274.964,139.881,270.934,135.851,265.963,135.851z"/>
			<path d="M9,105.947c10.469,0,20.558-3.195,29.029-9c1.055-0.723,2.089-1.48,3.092-2.283c1.002,0.803,2.037,1.56,3.092,2.283
				c8.47,5.805,18.56,9,29.028,9c10.468,0,20.558-3.195,29.029-9c1.055-0.723,2.089-1.48,3.092-2.283
				c1.002,0.803,2.037,1.56,3.092,2.283c8.47,5.805,18.56,9,29.028,9s20.558-3.195,29.028-9c1.055-0.723,2.089-1.48,3.092-2.283
				c1.002,0.803,2.037,1.56,3.092,2.283c8.471,5.805,18.56,9,29.029,9c10.469,0,20.558-3.195,29.028-9
				c1.055-0.723,2.089-1.48,3.092-2.283c1.002,0.803,2.037,1.56,3.092,2.283c8.471,5.805,18.56,9,29.029,9c4.971,0,9-4.029,9-9
				s-4.029-9-9-9c-9.717,0-18.94-4.233-25.305-11.614c-1.709-1.982-4.198-3.123-6.816-3.123s-5.106,1.14-6.816,3.123
				c-6.363,7.38-15.586,11.613-25.304,11.613s-18.94-4.233-25.305-11.614c-1.709-1.982-4.198-3.123-6.816-3.123
				c-2.618,0-5.106,1.14-6.816,3.123c-6.363,7.38-15.586,11.613-25.304,11.613c-9.718,0-18.94-4.233-25.304-11.613
				c-1.71-1.983-4.198-3.123-6.816-3.123c-2.618,0-5.106,1.14-6.816,3.123c-6.364,7.381-15.587,11.614-25.305,11.614
				c-9.718,0-18.941-4.232-25.304-11.612c-1.71-1.983-4.198-3.123-6.816-3.123c-2.618,0-5.106,1.14-6.816,3.123
				C27.94,83.715,18.717,87.947,9,87.947c-4.971,0-9,4.029-9,9S4.029,105.947,9,105.947z"/>
		</g>
	</g>
</g>
<g>
</g>
<g>
</g>
<g>
</g>
<g>
</g>
<g>
</g>
<g>
</g>
<g>
</g>
<g>
</g>
<g>
</g>
<g>
</g>
<g>
</g>
<g>
</g>
<g>
</g>
<g>
</g>
<g>
</g>
</svg>
