<svg xmlns="http://www.w3.org/2000/svg" viewBox="0 0 512 512"><style>.a{fill:#1689FC;}.b{fill:#136EF1;}</style><path d="M316.2 60.2c0 33.1-27.1 60.2-60.2 60.2s-60.2-27.1-60.2-60.2C195.8 27.1 222.9 0 256 0S316.2 27.1 316.2 60.2z" class="a"/><path d="M496.9 301.2c0 16.6-13.6 30.1-30.1 30.1h-90.4c-11.4 0-21.7-6.3-26.8-16.6l-33.4-66.6v142.2l-59.9 22.6H256l-60.2-22.9V248.2l-33.4 66.6c-5.1 10.2-15.4 16.6-26.8 16.6H45.2c-16.6 0-30.1-13.6-30.1-30.1s13.6-30.1 30.1-30.1h71.7l52.1-103.9c4.8-9.9 15.7-16.3 28-16.6 0 0 29.5 0 59 0 29.8 0 59.6 0 59.6 0 12 0 22.6 6.9 27.4 16.6l52.1 103.9h71.7C483.4 271.1 496.9 284.6 496.9 301.2z" class="a"/><path d="M256 120.5V0c33.1 0 60.2 27.1 60.2 60.2C316.2 93.4 289.1 120.5 256 120.5z" class="b"/><path d="M496.9 301.2c0 16.6-13.6 30.1-30.1 30.1h-90.4c-11.4 0-21.7-6.3-26.8-16.6l-33.4-66.6v142.2l-59.9 22.6H256V150.6c29.8 0 59.6 0 59.6 0 12 0 22.6 6.9 27.4 16.6l52.1 103.9h71.7C483.4 271.1 496.9 284.6 496.9 301.2z" class="b"/><path d="M388.5 482.8C382.2 500.3 365 512 346.4 512c-5.4 0-10.5-0.9-16-3L256 481 89.4 418.6c-23.2-8.7-34.9-34.6-26.2-58.1 8.7-23.2 34.6-34.9 58.1-26.2L256 384.9l106.3 39.8C385.5 433.4 397.3 459.3 388.5 482.8z" class="a"/><path d="M388.5 482.8C382.2 500.3 365 512 346.4 512c-5.4 0-10.5-0.9-16-3L256 481v-96.1l106.3 39.8C385.5 433.4 397.3 459.3 388.5 482.8z" class="b"/><path d="M422.6 418.6L256 481l-74.4 28c-5.4 2.1-10.5 3-16 3 -18.7 0-35.8-11.7-42.2-29.2 -8.7-23.5 3-49.4 26.2-58.1L256 384.9l134.6-50.6c23.5-8.7 49.4 3 58.1 26.2C457.5 384 445.7 409.9 422.6 418.6z" fill="#17ACE8"/><path d="M422.6 418.6L256 481v-96.1l134.6-50.6c23.5-8.7 49.4 3 58.1 26.2C457.5 384 445.7 409.9 422.6 418.6z" class="a"/></svg>
