<?xml version="1.0" encoding="iso-8859-1"?>
<!-- Generator: Adobe Illustrator 19.0.0, SVG Export Plug-In . SVG Version: 6.00 Build 0)  -->
<svg version="1.1" id="Capa_1" xmlns="http://www.w3.org/2000/svg" xmlns:xlink="http://www.w3.org/1999/xlink" x="0px" y="0px"
	 viewBox="0 0 512 512" style="enable-background:new 0 0 512 512;" xml:space="preserve">
<g>
	<path style="fill:#1689FC;" d="M316.235,60.235c0,33.128-27.107,60.235-60.235,60.235s-60.235-27.107-60.235-60.235
		C195.765,27.105,222.872,0,256,0S316.235,27.105,316.235,60.235z"/>
	<path style="fill:#1689FC;" d="M496.941,301.176c0,16.565-13.553,30.118-30.118,30.118h-90.353
		c-11.445,0-21.684-6.326-26.805-16.565l-33.431-66.56v142.154l-59.934,22.588H256l-60.235-22.888V248.169l-33.431,66.56
		c-5.121,10.239-15.36,16.565-26.805,16.565H45.176c-16.565,0-30.118-13.553-30.118-30.118s13.553-30.118,30.118-30.118h71.68
		l52.104-103.906c4.82-9.94,15.662-16.263,28.009-16.565c0,0,29.516,0,59.032,0c29.816,0,59.632,0,59.632,0
		c12.048,0,22.588,6.926,27.408,16.565l52.103,103.906h71.68C483.388,271.059,496.941,284.612,496.941,301.176z"/>
</g>
<g>
	<path style="fill:#136EF1;" d="M256,120.471V0c33.128,0,60.235,27.105,60.235,60.235C316.235,93.364,289.128,120.471,256,120.471z"
		/>
	<path style="fill:#136EF1;" d="M496.941,301.176c0,16.565-13.553,30.118-30.118,30.118h-90.353
		c-11.445,0-21.684-6.326-26.805-16.565l-33.431-66.56v142.154l-59.934,22.588H256V150.588c29.816,0,59.632,0,59.632,0
		c12.048,0,22.588,6.926,27.408,16.565l52.104,103.906h71.68C483.388,271.059,496.941,284.612,496.941,301.176z"/>
</g>
<path style="fill:#1689FC;" d="M388.519,482.785C382.193,500.254,365.026,512,346.353,512c-5.421,0-10.54-0.905-15.963-3.013
	L256,480.978L89.448,418.634c-23.19-8.733-34.935-34.634-26.202-58.127c8.735-23.19,34.636-34.935,58.129-26.202L256,384.903
	l106.316,39.755C385.506,433.393,397.252,459.294,388.519,482.785z"/>
<path style="fill:#136EF1;" d="M388.519,482.785C382.193,500.254,365.026,512,346.353,512c-5.421,0-10.54-0.905-15.963-3.013
	L256,480.978v-96.075l106.316,39.755C385.506,433.393,397.252,459.294,388.519,482.785z"/>
<path style="fill:#17ACE8;" d="M422.552,418.634L256,480.978l-74.39,28.009c-5.423,2.108-10.542,3.013-15.963,3.013
	c-18.673,0-35.84-11.746-42.166-29.215c-8.733-23.491,3.013-49.392,26.202-58.127L256,384.903l134.625-50.598
	c23.493-8.733,49.393,3.013,58.129,26.202C457.487,384,445.741,409.901,422.552,418.634z"/>
<path style="fill:#1689FC;" d="M422.552,418.634L256,480.978v-96.075l134.625-50.598c23.493-8.733,49.393,3.013,58.129,26.202
	C457.487,384,445.741,409.901,422.552,418.634z"/>
<g>
</g>
<g>
</g>
<g>
</g>
<g>
</g>
<g>
</g>
<g>
</g>
<g>
</g>
<g>
</g>
<g>
</g>
<g>
</g>
<g>
</g>
<g>
</g>
<g>
</g>
<g>
</g>
<g>
</g>
</svg>
